<svg width="321.000000" height="254.000000" viewBox="0 0 321 254" fill="none" xmlns="http://www.w3.org/2000/svg" xmlns:xlink="http://www.w3.org/1999/xlink">
	<desc>
			Created with Pixso.
	</desc>
	<defs/>
	<path id="icon" d="M98.08 -0.25L98.17 -0.25C103.07 -0.25 107 3.67 107 8.57L107 17.22C107 22.13 103.07 26.05 98.08 25.96L97.99 25.96C93.09 25.96 89.16 22.04 89.16 17.13L89.16 8.57C89.16 3.67 93.09 -0.25 98.08 -0.25ZM41.55 28.28L45.02 31.76C46.76 33.45 47.63 35.72 47.63 38C47.63 40.27 46.76 42.55 45.02 44.24L44.93 44.33C41.46 47.81 35.93 47.81 32.45 44.33L28.97 40.85C27.24 39.16 26.37 36.91 26.37 34.64C26.37 32.38 27.24 30.11 28.97 28.37L29.06 28.28C32.45 24.89 38.07 24.8 41.55 28.28ZM154.61 28.28C158.09 24.89 163.71 24.89 167.18 28.37C168.92 30.11 169.79 32.36 169.79 34.61C169.79 36.86 168.92 39.11 167.18 40.85L163.71 44.33C160.32 47.81 154.7 47.81 151.22 44.33L151.13 44.24C149.39 42.55 148.52 40.29 148.52 38.03C148.52 35.77 149.39 33.49 151.13 31.76L154.61 28.28ZM44.58 97.38C44.58 67.87 68.56 43.88 98.08 43.88C118.34 43.88 135.99 55.18 145.07 71.82C134.72 81.02 126.98 93.11 123.12 106.81C122.21 106.77 121.29 106.75 120.37 106.75C96.94 106.75 77.02 121.81 69.79 142.78C54.66 133.32 44.58 116.51 44.58 97.38ZM267.5 253.87L93.62 253.87C71.46 253.87 53.5 235.91 53.5 213.75C53.5 196.26 64.68 181.38 80.29 175.89C80.26 175.14 80.25 174.38 80.25 173.62C80.25 144.07 104.2 120.12 133.75 120.12C134.67 120.12 135.58 120.14 136.5 120.19C145.2 89.28 173.61 66.62 207.31 66.62C247.94 66.62 280.87 99.56 280.87 140.18C280.87 142.97 280.71 145.73 280.41 148.44C303.72 154.22 321 175.28 321 200.37C321 229.92 297.04 253.87 267.5 253.87ZM8.82 88.47L17.92 88.47C22.82 88.47 26.75 92.39 26.75 97.38L26.75 97.47C26.75 102.38 22.82 106.3 17.83 106.21L8.82 106.21C3.92 106.21 0 102.29 0 97.38L0 97.29C0 92.39 3.92 88.47 8.82 88.47ZM41.55 166.4C38.07 169.88 32.45 169.88 28.97 166.4C27.22 164.65 26.35 162.38 26.35 160.1C26.35 157.85 27.2 155.6 28.88 153.83L32.36 150.35C35.84 146.87 41.46 146.87 44.93 150.35L45.02 150.44C46.73 152.14 47.6 154.41 47.6 156.69C47.6 158.94 46.75 161.19 45.02 162.92L41.55 166.4Z" fill="#FFFFFF" fill-opacity="1.000000" fill-rule="evenodd"/>
</svg>
